<mxfile host="app.diagrams.net" agent="Mozilla/5.0 (Macintosh; Intel Mac OS X 10_15_7) AppleWebKit/537.36 (KHTML, like Gecko) Chrome/126.0.0.0 Safari/537.36" version="24.7.6">
  <diagram name="第 1 页" id="HEpORpa9TXbA5wQ6qju_">
    <mxGraphModel dx="1306" dy="701" grid="1" gridSize="10" guides="1" tooltips="1" connect="1" arrows="1" fold="1" page="1" pageScale="1" pageWidth="827" pageHeight="1169" math="0" shadow="0">
      <root>
        <mxCell id="0" />
        <mxCell id="1" parent="0" />
        <mxCell id="PtgZ0_6IVLNJJYMqiqbg-11" style="edgeStyle=orthogonalEdgeStyle;rounded=0;orthogonalLoop=1;jettySize=auto;html=1;exitX=1;exitY=0.5;exitDx=0;exitDy=0;" edge="1" parent="1" source="PtgZ0_6IVLNJJYMqiqbg-2" target="PtgZ0_6IVLNJJYMqiqbg-4">
          <mxGeometry relative="1" as="geometry" />
        </mxCell>
        <mxCell id="PtgZ0_6IVLNJJYMqiqbg-2" value="测试账号" style="rounded=1;whiteSpace=wrap;html=1;fillColor=none;" vertex="1" parent="1">
          <mxGeometry x="150" y="220" width="120" height="60" as="geometry" />
        </mxCell>
        <mxCell id="PtgZ0_6IVLNJJYMqiqbg-9" style="edgeStyle=orthogonalEdgeStyle;rounded=0;orthogonalLoop=1;jettySize=auto;html=1;exitX=1;exitY=0.5;exitDx=0;exitDy=0;entryX=0;entryY=0.5;entryDx=0;entryDy=0;" edge="1" parent="1" source="PtgZ0_6IVLNJJYMqiqbg-3" target="PtgZ0_6IVLNJJYMqiqbg-5">
          <mxGeometry relative="1" as="geometry" />
        </mxCell>
        <mxCell id="PtgZ0_6IVLNJJYMqiqbg-3" value="正式账号" style="rounded=1;whiteSpace=wrap;html=1;fillColor=none;" vertex="1" parent="1">
          <mxGeometry x="150" y="360" width="120" height="60" as="geometry" />
        </mxCell>
        <mxCell id="PtgZ0_6IVLNJJYMqiqbg-12" style="edgeStyle=orthogonalEdgeStyle;rounded=0;orthogonalLoop=1;jettySize=auto;html=1;exitX=0;exitY=0.75;exitDx=0;exitDy=0;entryX=1;entryY=0.75;entryDx=0;entryDy=0;dashed=1;" edge="1" parent="1" source="PtgZ0_6IVLNJJYMqiqbg-4" target="PtgZ0_6IVLNJJYMqiqbg-2">
          <mxGeometry relative="1" as="geometry" />
        </mxCell>
        <mxCell id="PtgZ0_6IVLNJJYMqiqbg-16" style="edgeStyle=orthogonalEdgeStyle;rounded=0;orthogonalLoop=1;jettySize=auto;html=1;exitX=0.5;exitY=1;exitDx=0;exitDy=0;entryX=0.5;entryY=0;entryDx=0;entryDy=0;" edge="1" parent="1" source="PtgZ0_6IVLNJJYMqiqbg-4" target="PtgZ0_6IVLNJJYMqiqbg-5">
          <mxGeometry relative="1" as="geometry" />
        </mxCell>
        <mxCell id="PtgZ0_6IVLNJJYMqiqbg-4" value="测试缓存data" style="rounded=1;whiteSpace=wrap;html=1;fillColor=none;" vertex="1" parent="1">
          <mxGeometry x="560" y="220" width="120" height="60" as="geometry" />
        </mxCell>
        <mxCell id="PtgZ0_6IVLNJJYMqiqbg-14" style="edgeStyle=orthogonalEdgeStyle;rounded=0;orthogonalLoop=1;jettySize=auto;html=1;exitX=0;exitY=0.75;exitDx=0;exitDy=0;entryX=1;entryY=0.75;entryDx=0;entryDy=0;dashed=1;" edge="1" parent="1" source="PtgZ0_6IVLNJJYMqiqbg-5" target="PtgZ0_6IVLNJJYMqiqbg-3">
          <mxGeometry relative="1" as="geometry" />
        </mxCell>
        <mxCell id="PtgZ0_6IVLNJJYMqiqbg-17" style="edgeStyle=orthogonalEdgeStyle;rounded=0;orthogonalLoop=1;jettySize=auto;html=1;exitX=0.25;exitY=0;exitDx=0;exitDy=0;entryX=1;entryY=1;entryDx=0;entryDy=0;dashed=1;" edge="1" parent="1" source="PtgZ0_6IVLNJJYMqiqbg-5" target="PtgZ0_6IVLNJJYMqiqbg-2">
          <mxGeometry relative="1" as="geometry">
            <Array as="points">
              <mxPoint x="590" y="300" />
              <mxPoint x="270" y="300" />
            </Array>
          </mxGeometry>
        </mxCell>
        <mxCell id="PtgZ0_6IVLNJJYMqiqbg-5" value="正式缓存data" style="rounded=1;whiteSpace=wrap;html=1;fillColor=none;" vertex="1" parent="1">
          <mxGeometry x="560" y="360" width="120" height="60" as="geometry" />
        </mxCell>
        <mxCell id="PtgZ0_6IVLNJJYMqiqbg-6" value="测试服务商" style="text;html=1;align=center;verticalAlign=middle;whiteSpace=wrap;rounded=0;" vertex="1" parent="1">
          <mxGeometry x="710" y="235" width="70" height="35" as="geometry" />
        </mxCell>
        <mxCell id="PtgZ0_6IVLNJJYMqiqbg-8" value="正式服务商" style="text;html=1;align=center;verticalAlign=middle;whiteSpace=wrap;rounded=0;" vertex="1" parent="1">
          <mxGeometry x="720" y="372.5" width="70" height="35" as="geometry" />
        </mxCell>
        <mxCell id="PtgZ0_6IVLNJJYMqiqbg-10" value="查询" style="text;html=1;align=center;verticalAlign=middle;whiteSpace=wrap;rounded=0;" vertex="1" parent="1">
          <mxGeometry x="390" y="360" width="60" height="30" as="geometry" />
        </mxCell>
        <mxCell id="PtgZ0_6IVLNJJYMqiqbg-13" value="查询" style="text;html=1;align=center;verticalAlign=middle;whiteSpace=wrap;rounded=0;" vertex="1" parent="1">
          <mxGeometry x="383.5" y="210" width="60" height="30" as="geometry" />
        </mxCell>
        <mxCell id="PtgZ0_6IVLNJJYMqiqbg-15" value="返回" style="text;html=1;align=center;verticalAlign=middle;whiteSpace=wrap;rounded=0;" vertex="1" parent="1">
          <mxGeometry x="390" y="407.5" width="60" height="30" as="geometry" />
        </mxCell>
        <mxCell id="PtgZ0_6IVLNJJYMqiqbg-18" value="返回" style="text;html=1;align=center;verticalAlign=middle;whiteSpace=wrap;rounded=0;" vertex="1" parent="1">
          <mxGeometry x="390" y="270" width="60" height="30" as="geometry" />
        </mxCell>
        <mxCell id="PtgZ0_6IVLNJJYMqiqbg-19" value="测试账号优先查缓存测试data。查询不到再查正式缓存data" style="text;html=1;align=center;verticalAlign=middle;whiteSpace=wrap;rounded=0;" vertex="1" parent="1">
          <mxGeometry x="250" y="140" width="336" height="40" as="geometry" />
        </mxCell>
      </root>
    </mxGraphModel>
  </diagram>
</mxfile>
